<?xml version="1.0" encoding="utf-8"?>
<!-- Generator: Adobe Illustrator 28.1.0, SVG Export Plug-In . SVG Version: 6.00 Build 0)  -->
<svg version="1.1" id="Layer_1" xmlns="http://www.w3.org/2000/svg" xmlns:xlink="http://www.w3.org/1999/xlink" x="0px" y="0px"
	 viewBox="0 0 358.2 508.6" style="enable-background:new 0 0 358.2 508.6;" xml:space="preserve">
<style type="text/css">
	.st0{fill:#FFFFFF;}
	.st1{fill:#B25398;}
	.st2{display:none;}
	.st3{display:inline;fill:none;stroke:#EC008C;stroke-width:8.000000e-02;stroke-miterlimit:10;}
</style>
<g id="Artwork">
	<path class="st0" d="M38.6,20.8h89.3c1.9,26.6,24.1,47.6,51.2,47.6s49.3-21,51.2-47.6h89.3c9.5,0,17.3,7.8,17.3,17.3v251.5H21.3
		V38.1C21.3,28.5,29.1,20.8,38.6,20.8"/>
	<g>
		<g>
			<path class="st1" d="M319.5,13.3H223V17c0,24.2-19.7,43.9-43.9,43.9S135.2,41.2,135.2,17v-3.7H38.6C25,13.3,13.9,24.4,13.9,38
				v432.5c0,13.6,11.1,24.7,24.7,24.7h96.5v-3.7c0-24.2,19.7-43.9,43.9-43.9s43.9,19.7,43.9,43.9v3.7h96.5
				c13.6,0,24.7-11.1,24.7-24.7V38.1C344.2,24.4,333.2,13.3,319.5,13.3 M38.6,20.8h89.3c1.9,26.6,24.1,47.6,51.2,47.6
				s49.3-21,51.2-47.6h89.3c9.5,0,17.3,7.8,17.3,17.3v251.5H21.3V38.1C21.3,28.5,29.1,20.8,38.6,20.8"/>
			<g>
				<path class="st0" d="M50,314.1l6.3,15.4l6.3-15.4h2.8l-7.7,18.5l0,0h-2.9l-7.7-18.5H50z"/>
				<path class="st0" d="M70.8,305.3c1.1,0,2,0.8,2,1.9s-0.9,1.9-2,1.9s-2-0.8-2-1.9C68.8,306.1,69.7,305.3,70.8,305.3z M72.1,314.1
					h-2.6v18.5h2.6V314.1z"/>
				<path class="st0" d="M79.4,327.3c0.4,1.4,1.2,3.2,4.4,3.2c2.4,0,3.9-1.2,3.9-2.9c0-1.2-0.7-2.4-2.7-2.9l-2.6-0.6
					c-2.3-0.6-5.2-1.7-4.7-6c0.4-2.7,3-4.4,6-4.4c2.9,0,5.4,1.4,5.8,4.8h-2.6c-0.3-1.4-1.7-2.3-3.3-2.3c-1.8,0-3.3,1-3.5,2.3
					c-0.4,2.1,1.4,2.8,2.7,3.1l2.5,0.6c3.5,0.8,4.7,2.9,4.7,5.4c0,3.2-2.9,5.4-6.8,5.4c-3.1,0-6.3-2.1-6.5-5.7H79.4z"/>
				<path class="st0" d="M96.7,305.3c1.1,0,2,0.8,2,1.9s-0.9,1.9-2,1.9s-2-0.8-2-1.9C94.7,306.1,95.6,305.3,96.7,305.3z M98,314.1
					h-2.6v18.5H98V314.1z"/>
				<path class="st0" d="M105.6,332.7v-16.1h-3.3v-2.4h3.3v-6.9h2.7v6.9h3.9v2.4h-3.9v16.1H105.6z"/>
				<path class="st0" d="M141.5,330.5c-1.7,1.6-4.1,2.5-6.7,2.5c-5.3,0-9.7-3.8-9.7-9.7c0-5.9,4.4-9.6,9.7-9.6
					c2.6,0,4.9,0.9,6.7,2.5l-1.9,1.9c-1.3-1.1-3-1.7-4.8-1.7c-3.8,0-7.1,2.7-7.1,7s3.2,7.1,7.1,7.1c1.8,0,3.5-0.6,4.8-1.8
					L141.5,330.5z"/>
				<path class="st0" d="M163.6,332.7H161v-3.2c-1.4,2.3-4.3,3.6-7,3.6c-5.3,0-9.5-3.8-9.5-9.7c0-5.9,4.2-9.6,9.5-9.6
					c2.7,0,5.6,1.1,7,3.5v-3.1h2.7L163.6,332.7L163.6,332.7z M154,330.4c3.8,0,7-2.5,7-7.1s-3.6-6.9-7-6.9c-3.8,0-6.8,2.7-6.8,6.9
					C147.2,327.5,150.2,330.4,154,330.4z"/>
				<path class="st0" d="M180.8,317c-0.9-0.4-2-0.6-2.7-0.6c-3.8,0-5.3,4.4-5.3,9.4v6.9h-2.7v-18.5h2.7v4.2c0.9-3.2,2.6-4.6,5.3-4.6
					c1.3,0,2.7,0.4,3,0.7L180.8,317z"/>
				<path class="st0" d="M196.1,322.1v2.5h-13.5v-2.5H196.1z"/>
				<path class="st0" d="M211.5,306.6h-2c-3.5,0-3.8,2.9-3.8,5.4v2.1h4.6v2.4h-4.6v16.1H203v-16.1h-3.6v-2.4h3.6V312
					c0-4.4,1.6-7.9,6.5-7.9h2V306.6z"/>
				<path class="st0" d="M225.2,317c-0.9-0.4-2-0.6-2.7-0.6c-3.8,0-5.3,4.4-5.3,9.4v6.9h-2.7v-18.5h2.7v4.2c0.9-3.2,2.6-4.6,5.3-4.6
					c1.3,0,2.7,0.4,3,0.7L225.2,317z"/>
				<path class="st0" d="M227.7,323.3c0-5.9,4.1-9.6,9.4-9.6c5.3,0,9.1,3.7,9.1,9.6c0,0.4,0,0.9,0,1.2h-15.7
					c0.5,3.6,3.2,5.9,6.7,5.9c2.5,0,4.6-1.2,5.8-3.2c0.8,0.2,1.8,0.4,2.7,0.6c-1.5,3.3-4.7,5.2-8.5,5.2
					C231.7,333.1,227.7,329.2,227.7,323.3z M243.4,322.1c-0.5-3.5-3-5.8-6.4-5.8c-3.5,0-6.1,2.2-6.7,5.8H243.4z"/>
				<path class="st0" d="M249.8,323.3c0-5.9,4.1-9.6,9.4-9.6c5.3,0,9.1,3.7,9.1,9.6c0,0.4,0,0.9,0,1.2h-15.7
					c0.5,3.6,3.2,5.9,6.7,5.9c2.5,0,4.6-1.2,5.8-3.2c0.8,0.2,1.8,0.4,2.7,0.6c-1.5,3.3-4.7,5.2-8.5,5.2
					C253.8,333.1,249.8,329.2,249.8,323.3z M265.5,322.1c-0.5-3.5-3-5.8-6.4-5.8c-3.5,0-6.1,2.2-6.7,5.8H265.5z"/>
				<path class="st0" d="M285,305.3c1.1,0,2,0.8,2,1.9s-0.9,1.9-2,1.9s-2-0.8-2-1.9C283,306.1,283.9,305.3,285,305.3z M286.3,314.1
					h-2.6v18.5h2.6V314.1z"/>
				<path class="st0" d="M295.4,332.7h-2.7v-18.5h2.7v3.1c1.2-2.4,4-3.5,6.1-3.5c4.5,0,7.2,3.1,7.1,8.1v10.8H306v-10.8
					c0-3.4-1.6-5.5-4.5-5.5s-6.1,1.7-6.1,6.2V332.7z"/>
			</g>
			<path class="st1" d="M169.8,153.6c-1.4,3.5-5.7,5.6-10.8,5.6c-13,0-17.5-10-17.5-20.3c0-12.3,7.7-20.6,17.3-20.6
				c5,0,8.6,1.9,11.1,5.9v-4.9h10.4v39.9c0,11.9-8.7,18.3-19.7,18.3s-19.1-6.3-19.1-16.5h9.7c0,4.7,3.5,7.5,8.7,7.5
				c5.5,0,10-3.3,10-8.5L169.8,153.6L169.8,153.6z M170.1,140.1c0-8.6-3-12.7-8.9-12.7s-8.9,3.9-8.9,12c0,7.1,3.8,11.6,8.9,11.6
				C166.3,151,170.1,146.8,170.1,140.1"/>
			<path class="st1" d="M183.5,139.1c0-12.5,7.8-20.8,20.3-20.8c12.4,0,20.1,8.2,20.1,20.8c0,12.5-7.8,20.8-20.1,20.8
				C191.1,159.9,183.5,151.4,183.5,139.1 M213.4,139.1c0-8-3.2-12-9.6-12c-6.3,0-9.6,3.9-9.6,12c0,8,3.2,12,9.6,12
				C210.2,151.2,213.4,147.2,213.4,139.1"/>
			<path class="st1" d="M226.4,139.1c0-12.5,7.8-20.8,20.3-20.8c12.4,0,20.1,8.2,20.1,20.8c0,12.5-7.8,20.8-20.1,20.8
				C234,159.9,226.4,151.4,226.4,139.1 M256.3,139.1c0-8-3.2-12-9.6-12c-6.3,0-9.6,3.9-9.6,12c0,8,3.2,12,9.6,12
				C253.1,151.2,256.3,147.2,256.3,139.1"/>
			<path class="st1" d="M297.6,158.9l-0.1-4.8c-2.5,4-6.2,5.9-11,5.9c-10,0-17.1-7.9-17.1-21.2c0-12,6-20.4,16.2-20.4
				c4.9,0,8.8,2,11.7,6.2V105h10.3v54L297.6,158.9L297.6,158.9z M297.7,140.1c0-8.6-3-12.9-8.8-12.9c-6.1,0-9,4.1-9,12.2
				c0,7.1,3.7,12,8.9,12C293.9,151.4,297.7,146.8,297.7,140.1"/>
			<path class="st1" d="M69.4,195.3h10.5v42.2c0,9.6-6.7,16.1-15.6,16.1c-10.8,0-15.9-6.3-15.9-16.5h9.8c0,4.5,1.4,7.3,5.5,7.3
				c4.2,0,5.6-2.7,5.6-7.2L69.4,195.3L69.4,195.3z M69.4,180.9h10.5v9.7H69.4V180.9z"/>
			<path class="st1" d="M83.2,215.1c0-12.5,7.8-20.8,20.3-20.8c12.4,0,20.1,8.2,20.1,20.8c0,12.5-7.8,20.8-20.1,20.8
				C90.8,235.9,83.2,227.4,83.2,215.1 M113.1,215.1c0-8-3.2-12-9.6-12s-9.6,3.9-9.6,12c0,8,3.2,12,9.6,12S113.1,223.1,113.1,215.1"
				/>
			<path class="st1" d="M152.7,234.8v-5.5c-2.7,4.5-6.8,6.6-12.3,6.6c-7.9,0-13.4-5.9-13.4-14.5v-26h10.4v24.4c0,5,2.2,7.4,6.7,7.4
				c5.3,0,8.1-3.8,8.1-9v-22.8h10.4v39.5L152.7,234.8L152.7,234.8z"/>
			<path class="st1" d="M166.8,234.8v-39.5h9.8v4.7c3.5-5.3,7.5-5.8,11.7-5.8h1.4V205c-1-0.2-1.9-0.2-2.9-0.2
				c-6.4,0-9.6,3.2-9.6,9.6V235h-10.4V234.8z"/>
			<path class="st1" d="M217.4,234.8v-23.9c0-6.1-1.8-7.8-6.7-7.8c-5.5,0-8.1,3.1-8.1,9.1v22.6h-10.4v-39.5h10v5.8
				c2.4-4.4,6.4-6.8,12.8-6.8c7.5,0,13.1,4.6,13.1,13.2v27.4h-10.7V234.8z"/>
			<path class="st1" d="M241.6,217.8c0.3,5.9,3.7,9.8,8.8,9.8c3.4,0,6.3-1.7,7.1-4.4h10.8c-2.4,8.1-8.9,12.7-17.3,12.7
				c-13.2,0-19.8-7.2-19.8-21.5c0-12.2,7-20.1,19.1-20.1s18.6,7.9,18.6,23.5H241.6z M258.1,211.2c-0.2-5.9-4-8.7-8.1-8.7
				c-4.2,0-7.6,3.2-8,8.7H258.1z"/>
			<path class="st1" d="M297.2,229.6c-1.4,3.5-5.8,5.6-10.7,5.6c-8.3,0-14.5-5.6-14.5-14.3v-25.6h10.4v24.1c0,4.9,2.3,7.4,6.7,7.4
				c4.7,0,8-3.1,8-7.4v-24.1h10.4v40.6c0,11.2-8,17.7-18.1,17.7c-11.6,0-17.4-6.3-17.4-16.5h9.7c0,4.7,2.7,7.5,8.2,7.5
				c3.8,0,7.2-3.3,7.2-8.5L297.2,229.6L297.2,229.6z"/>
		</g>
		<g>
			<path class="st0" d="M105,428.9H55.3v-8.9l31.4-37.2c2.7-3.1,4.1-5.9,4.1-8.6c0-4.2-3.6-7.6-9.6-7.6c-5.7,0-9.9,4.4-10.8,10.6
				l-14.9-2.6c2.3-14.6,12.4-23.7,26.7-23.7c6.9,0,12.8,2.2,17.6,6.5c4.9,4.3,7.3,9.9,7.3,16.7c0,6.9-2.7,13.3-8,19.4l-17.6,19.9
				H105V428.9z"/>
			<path class="st0" d="M148.7,351c10.7,0,18.4,4.2,22.5,11.7c4.2,7.5,5.8,16.3,5.8,28c0,11.7-1.6,20.3-5.8,27.8
				c-4.1,7.5-11.8,11.7-22.5,11.7c-19,0-28.6-13.2-28.6-39.4C120.1,364.2,129.7,351,148.7,351z M148.7,414.2c8,0,12-7.8,12-23.6
				c0-15.9-4-23.8-12-23.8c-8.2,0-12.2,7.9-12.2,23.8C136.4,406.4,140.5,414.2,148.7,414.2z"/>
			<path class="st0" d="M239.4,428.9h-49.7v-8.9l31.4-37.2c2.7-3.1,4.1-5.9,4.1-8.6c0-4.2-3.6-7.6-9.6-7.6c-5.7,0-9.9,4.4-10.8,10.6
				l-14.9-2.6c2.3-14.6,12.4-23.7,26.7-23.7c6.9,0,12.8,2.2,17.6,6.5c4.9,4.3,7.3,9.9,7.3,16.7c0,6.9-2.7,13.3-8,19.4l-17.6,19.9
				h23.6V428.9z"/>
			<path class="st0" d="M312.6,411.8h-9.7v17.1h-16.4v-17.1h-36.5l35.7-59.3h17.3V398h9.7V411.8z M272.2,398h14.2v-23.8L272.2,398z"
				/>
		</g>
	</g>
</g>
<g id="Cut" class="st2">
	<path class="st3" d="M319.5,498.7H223c-1.9,0-3.5-1.6-3.5-3.5v-3.7c0-22.3-18.1-40.4-40.4-40.4s-40.4,18.1-40.4,40.4v3.7
		c0,1.9-1.6,3.5-3.5,3.5H38.6c-15.6,0-28.2-12.7-28.2-28.2V38.1c0-15.6,12.7-28.2,28.2-28.2h96.5c1.9,0,3.5,1.6,3.5,3.5v3.7
		c0,22.3,18.1,40.4,40.4,40.4s40.4-18.1,40.4-40.4v-3.7c0-1.9,1.6-3.5,3.5-3.5h96.5c15.6,0,28.2,12.7,28.2,28.2v432.5
		C347.7,486.1,335.1,498.7,319.5,498.7z"/>
</g>
</svg>
